<svg xmlns="http://www.w3.org/2000/svg" viewBox="0 0 960 540" width="960" height="540" role="img" aria-label="Two hands meeting mid-air, representing wisdom passed from one person to another">
  <!-- Drawn placeholder. Replace via Studio -> click the picture, or drop a new file in public/wisdom/. -->
  <rect width="960" height="540" fill="#F2F4FA"/>
  <g stroke="#2B6CB0" stroke-opacity="0.07" stroke-width="1">
    <path d="M0 90h960M0 180h960M0 270h960M0 360h960M0 450h960"/>
    <path d="M120 0v540M240 0v540M360 0v540M480 0v540M600 0v540M720 0v540M840 0v540"/>
  </g>
  <g transform="translate(480,270)" stroke-linecap="round" stroke-linejoin="round" fill="none">
    <path d="M-210 40c30 -50 90 -70 140 -40l70 40" stroke="#8A5A22" stroke-width="3"/>
    <path d="M210 40c-30 -50 -90 -70 -140 -40l-70 40" stroke="#2B6CB0" stroke-width="3"/>
    <path d="M-40 40l40 -8 44 10-6 18-38 -8-40 8z" fill="#8A5A22" stroke="none"/>
    <path d="M40 40l-40 -8-44 10 6 18 38 -8 40 8z" fill="#2B6CB0" stroke="none"/>
  </g>
  <g stroke="#8A5A22" stroke-opacity="0.25" stroke-width="2" fill="none">
    <path d="M56 108V56h52M904 56h-52v52M904 432v52h-52M56 432v52h52"/>
  </g>
</svg>
